<svg id="Capa_1" enable-background="new 0 0 458.353 458.353" height="512" viewBox="0 0 458.353 458.353" width="512" xmlns="http://www.w3.org/2000/svg"><path d="m318.99 222.053c32.385-22.186 53.421-59.193 53.421-100.303.001-67.128-54.622-121.75-121.749-121.75h-193.368v28.647h28.647v401.059h-28.647v28.647h222.015c67.128 0 121.75-54.622 121.75-121.75 0-53.161-34.471-97.992-82.069-114.55zm-68.328-193.406c51.335 0 93.103 41.768 93.103 93.103 0 44.118-31.319 82.486-74.471 91.243-6.085 1.231-12.351 1.86-18.632 1.86h-136.074v-186.206zm28.647 401.059h-164.721v-186.206h136.074 28.647c51.335 0 93.103 41.768 93.103 93.103s-41.768 93.103-93.103 93.103z"/></svg>